:SAMPLES-PER-SECOND 30
:FRAME-RANGE 1-2643
:FULLY-SPECIFIED
:DEGREES
2065
root  -63.0311 33.0669 -79.5791 22.0934 87.9339 1.23834
RightUpLeg  -26.8031 6.89713 -27.8277
RightLeg  59.1533 -1.52107 -3.22513
RightFoot  -21.2452 0.912473 12.1597
RightToes  5.38607e-012 1.2921e-014 -6.02303e-014
Spine  26.2237 2.74181 6.97109
Spine1  0.155501 5.56688 -7.02105
HEad  -10.6951 -22.7773 5.04359
LeftShoulder1  2.06241 -4.62611 -19.7878
LeftArm  -1.41905 -2.19352 -51.874
LeftForeArm  30.2094 -5.71937 -11.787
LeftHand  -0.170813 2.45895 6.40428
RightShoulder  2.93421 7.0063 22.3158
RightArm  -31.7148 25.4499 41.31
RightForeArm  49.3089 -5.21805 -1.05189
RightHand  -0.44544 -2.87988 -20.2595
LeftUpLeg  -52.4204 4.6449 8.73185
LeftLeg  63.2013 -1.0144 -1.51565
LeftFoot  -29.0518 -1.2474 -9.11263
LeftToes  -4.79707e-012 -5.93756e-011 -7.55542e-012
2066
root  -61.8787 33.391 -81.9758 27.9191 85.8143 6.90511
RightUpLeg  -32.2121 -1.62962 -21.6909
RightLeg  68.4889 -1.53535 -5.04362
RightFoot  -26.3851 1.33952 11.4726
RightToes  5.38607e-012 1.2921e-014 -6.02303e-014
Spine  27.4393 2.27414 6.29778
Spine1  0.728806 5.32036 -7.0558
HEad  -11.0178 -20.8687 4.0313
LeftShoulder1  2.07366 -4.51164 -20.3504
LeftArm  -0.855829 -2.66356 -50.7329
LeftForeArm  28.5466 -4.92363 -12.1694
LeftHand  -0.167071 2.63643 6.63057
RightShoulder  3.08779 7.33034 22.9327
RightArm  -31.8978 25.4958 42.3594
RightForeArm  55.518 -4.97312 -1.43222
RightHand  -0.434364 -2.95977 -20.3914
LeftUpLeg  -52.1627 8.40682 1.91376
LeftLeg  66.0592 -1.93164 -4.01453
LeftFoot  -27.7116 -0.558105 -5.03607
LeftToes  -4.79707e-012 -5.93756e-011 -7.55542e-012
2067
root  -60.8288 33.6396 -84.3954 31.9554 84.1041 9.5385
RightUpLeg  -39.7014 -10.7914 -12.2159
RightLeg  76.1043 -1.90537 -10.1831
RightFoot  -29.9278 1.24964 8.86857
RightToes  5.38607e-012 1.2921e-014 -6.02303e-014
Spine  27.9777 1.79344 6.66176
Spine1  1.48313 5.16155 -6.56921
HEad  -12.4386 -19.3829 3.17137
LeftShoulder1  2.21999 -5.16147 -20.0221
LeftArm  -1.42087 -7.01081 -50.611
LeftForeArm  30.4376 -0.693605 -12.8406
LeftHand  -0.110171 3.42258 5.66591
RightShoulder  3.26221 8.07344 22.552
RightArm  -33.1311 27.6246 43.3883
RightForeArm  56.8588 -4.71573 -2.67421
RightHand  -0.390579 -3.22386 -20.5139
LeftUpLeg  -55.5284 11.1508 -2.41452
LeftLeg  71.5905 -4.36585 -13.5475
LeftFoot  -19.9139 -0.295858 -5.53649
LeftToes  -4.79707e-012 -5.93756e-011 -7.55542e-012
2068
root  -59.8376 33.4412 -86.6713 38.4177 81.516 14.987
RightUpLeg  -46.9133 -15.7896 -3.34293
RightLeg  81.1019 -0.244334 -4.28327
RightFoot  -30.7948 1.47883 9.83265
RightToes  5.38607e-012 1.2921e-014 -6.02303e-014
Spine  29.6373 1.80912 5.54469
Spine1  2.50493 5.19934 -6.5097
HEad  -14.8101 -18.2384 3.38839
LeftShoulder1  2.55299 -6.40269 -20.1075
LeftArm  -2.16831 -13.6381 -49.6652
LeftForeArm  31.7708 2.97288 -12.8467
LeftHand  -0.085634 3.68417 4.7295
RightShoulder  3.39036 8.76125 21.946
RightArm  -34.5087 32.6604 44.0357
RightForeArm  57.1253 -4.43447 -4.23448
RightHand  -0.283772 -3.84045 -20.6274
LeftUpLeg  -58.7704 11.9427 -2.86518
LeftLeg  77.2022 -6.0661 -27.8517
LeftFoot  -16.5669 -0.885586 -21.3439
LeftToes  -4.79707e-012 -5.93756e-011 -7.55542e-012
2069
root  -58.8739 33.0148 -88.9373 45.0511 78.1724 21.0991
RightUpLeg  -52.3941 -17.5399 2.17226
RightLeg  83.0889 0.969022 7.97315
RightFoot  -31.5977 1.76368 11.0521
RightToes  5.38607e-012 1.2921e-014 -6.02303e-014
Spine  31.6557 1.62381 3.43901
Spine1  5.02952 5.46907 -7.98794
HEad  -18.3309 -16.9219 3.20806
LeftShoulder1  2.98806 -8.1805 -19.8033
LeftArm  -3.55325 -21.3974 -48.2857
LeftForeArm  29.5491 4.81939 -12.3827
LeftHand  -0.0680416 4.17169 4.72115
RightShoulder  3.34723 9.60361 19.6237
RightArm  -34.2382 39.4128 45.002
RightForeArm  56.399 -4.35987 -4.78912
RightHand  -0.234906 -4.1538 -21.2669
LeftUpLeg  -61.0691 10.4137 -1.542
LeftLeg  80.2097 -3.36315 -21.4223
LeftFoot  -17.3265 -0.927859 -19.5535
LeftToes  -4.79707e-012 -5.93756e-011 -7.55542e-012
2070
root  -57.9276 32.47 -91.1722 51.1631 74.6259 27.0421
RightUpLeg  -55.6137 -17.9866 3.7546
RightLeg  82.2324 1.57928 12.6862
RightFoot  -31.8214 2.2196 13.4381
RightToes  5.38607e-012 1.2921e-014 -6.02303e-014
Spine  35.0961 1.40264 0.860244
Spine1  6.97269 5.41042 -9.32959
HEad  -22.8928 -15.9204 3.22846
LeftShoulder1  3.37073 -10.0089 -19.0466
LeftArm  -5.83964 -29.3142 -45.847
LeftForeArm  26.4865 4.65365 -11.5619
LeftHand  -0.075051 3.90004 4.49344
RightShoulder  3.18653 10.3326 16.8436
RightArm  -34.5026 47.3527 44.5821
RightForeArm  55.1669 -4.29767 -5.35802
RightHand  -0.23201 -4.15511 -21.0061
LeftUpLeg  -62.5254 8.24681 2.1992
LeftLeg  79.9663 -1.7425 -10.1764
LeftFoot  -17.877 -0.780776 -15.4625
LeftToes  -4.79707e-012 -5.93756e-011 -7.55542e-012
2071
root  -56.8931 31.8372 -93.3852 60.2307 71.9616 35.4673
RightUpLeg  -55.7271 -18.6164 1.11207
RightLeg  80.24 0.483381 1.53865
RightFoot  -37.9777 0.105874 1.54526
RightToes  5.38607e-012 1.2921e-014 -6.02303e-014
Spine  37.9696 0.964315 -0.107865
Spine1  10.2508 4.72826 -9.55
HEad  -27.829 -16.4054 3.68852
LeftShoulder1  3.64639 -12.4465 -16.6847
LeftArm  -8.68786 -38.7799 -42.8075
LeftForeArm  25.7667 4.39154 -10.712
LeftHand  -0.0684497 3.92687 4.00893
RightShoulder  2.63955 10.5535 12.0894
RightArm  -36.4886 54.7026 41.2956
RightForeArm  53.116 -2.81392 -5.5152
RightHand  -0.219826 -4.27984 -22.1411
LeftUpLeg  -64.5761 5.37983 7.36626
LeftLeg  75.9398 -1.08459 -3.7122
LeftFoot  -20.0053 -0.752521 -11.482
LeftToes  -4.79707e-012 -5.93756e-011 -7.55542e-012
